#Comment line ignore any data following # character 
#Hierarchical Translation and Rotation (.htr) file 
[Header]	
#Header keywords are followed by a single value 
FileType HTR		#Single word string
DataType HTRS		#Translation followed by rotation and scale data
FileVersion 1		#integer
NumSegments 84		#integer
NumFrames 2		#integer
DataFrameRate 30		#integer, data frame rate in this file
EulerRotationOrder ZYX
CalibrationUnits mm
RotationUnits Degrees
GlobalAxisofGravity Y
BoneLengthAxis Y
ScaleFactor 1.00
[SegmentNames&Hierarchy]
#CHILD	PARENT
MASTER GLOBAL
root MASTER
chest root
L_mid_tent01 root
R_mid_tent01 root
spine01 root
Bip01_Neck chest
L_humerus chest
R_humerus chest
weapon_bone chest
Bip01_Head Bip01_Neck
eye_left_bone Bip01_Head
eye_right_bone Bip01_Head
L_forearm L_humerus
L_front_hand L_forearm
L_weapon_bone L_forearm
L_front_hand01_01 L_front_hand
L_front_hand02_01 L_front_hand
L_front_hand03_01 L_front_hand
L_front_hand01_02 L_front_hand01_01
L_front_hand02_02 L_front_hand02_01
L_front_hand03_02 L_front_hand03_01
R_forearm R_humerus
R_front_hand R_forearm
R_weapon_bone R_forearm
R_front_hand01_01 R_front_hand
R_front_hand02_01 R_front_hand
R_front_hand03_01 R_front_hand
R_front_hand01_02 R_front_hand01_01
R_front_hand02_02 R_front_hand02_01
R_front_hand03_02 R_front_hand03_01
null_rope01_connect L_mid_tent01
Rope1_Seg01 null_rope01_connect
Rope1_Seg02 Rope1_Seg01
Rope1_Seg03 Rope1_Seg02
Rope1_Seg04 Rope1_Seg03
Rope1_Seg05 Rope1_Seg04
Rope1_Seg06 Rope1_Seg05
Rope1_Seg07 Rope1_Seg06
Rope1_Seg09 Rope1_Seg07
L_mid_hand01 Rope1_Seg09
L_mid_hand02 Rope1_Seg09
L_mid_hand03 Rope1_Seg09
null_rope02_connect R_mid_tent01
Rope2_Seg01 null_rope02_connect
Rope2_Seg02 Rope2_Seg01
Rope2_Seg03 Rope2_Seg02
Rope2_Seg04 Rope2_Seg03
Rope2_Seg05 Rope2_Seg04
Rope2_Seg06 Rope2_Seg05
Rope2_Seg07 Rope2_Seg06
Rope2_Seg09 Rope2_Seg07
R_mid_hand01 Rope2_Seg09
R_mid_hand02 Rope2_Seg09
R_mid_hand03 Rope2_Seg09
spine02 spine01
spine03 spine02
pelvis spine03
null_rope03_connect pelvis
null_rope04_connect pelvis
Rope3_Seg01 null_rope03_connect
Rope3_Seg02 Rope3_Seg01
Rope3_Seg03 Rope3_Seg02
Rope3_Seg04 Rope3_Seg03
Rope3_Seg05 Rope3_Seg04
Rope3_Seg06 Rope3_Seg05
Rope3_Seg07 Rope3_Seg06
Rope3_Seg08 Rope3_Seg07
Rope3_Seg09 Rope3_Seg08
R_rear_hand01 Rope3_Seg09
R_rear_hand02 Rope3_Seg09
R_rear_hand03 Rope3_Seg09
Rope4_Seg01 null_rope04_connect
Rope4_Seg02 Rope4_Seg01
Rope4_Seg03 Rope4_Seg02
Rope4_Seg04 Rope4_Seg03
Rope4_Seg05 Rope4_Seg04
Rope4_Seg06 Rope4_Seg05
Rope4_Seg07 Rope4_Seg06
Rope4_Seg08 Rope4_Seg07
Rope4_Seg09 Rope4_Seg08
L_rear_hand01 Rope4_Seg09
L_rear_hand02 Rope4_Seg09
L_rear_hand03 Rope4_Seg09
[BasePosition]
#SegmentName Tx, Ty, Tz, Rx, Ry, Rz, BoneLength
MASTER 0.000000 0.000000 0.000000 -90.000000 0.000000 0.000000 10.000000 
root 0.000000 0.000000 0.000000 0.000000 0.000000 0.000000 10.000000 
chest 0.000000 0.000000 0.000000 0.000000 0.000000 0.000000 10.000000 
L_mid_tent01 0.000000 0.000000 0.000000 0.000000 0.000000 0.000000 10.000000 
R_mid_tent01 0.000000 0.000000 0.000000 0.000000 0.000000 0.000000 10.000000 
spine01 0.000000 0.000000 0.000000 0.000000 0.000000 0.000000 10.000000 
Bip01_Neck 0.000000 0.000000 0.000000 0.000000 0.000000 0.000000 10.000000 
L_humerus 0.000000 0.000000 0.000000 0.000000 0.000000 0.000000 10.000000 
R_humerus 0.000000 0.000000 0.000000 0.000000 0.000000 0.000000 10.000000 
weapon_bone 0.000000 0.000000 0.000000 0.000000 0.000000 0.000000 10.000000 
Bip01_Head 0.000000 0.000000 0.000000 0.000000 0.000000 0.000000 10.000000 
eye_left_bone 0.000000 0.000000 0.000000 0.000000 0.000000 0.000000 10.000000 
eye_right_bone 0.000000 0.000000 0.000000 0.000000 0.000000 0.000000 10.000000 
L_forearm 0.000000 0.000000 0.000000 0.000000 0.000000 0.000000 10.000000 
L_front_hand 0.000000 0.000000 0.000000 0.000000 0.000000 0.000000 10.000000 
L_weapon_bone 0.000000 0.000000 0.000000 0.000000 0.000000 0.000000 10.000000 
L_front_hand01_01 0.000000 0.000000 0.000000 0.000000 0.000000 0.000000 10.000000 
L_front_hand02_01 0.000000 0.000000 0.000000 0.000000 0.000000 0.000000 10.000000 
L_front_hand03_01 0.000000 0.000000 0.000000 0.000000 0.000000 0.000000 10.000000 
L_front_hand01_02 0.000000 0.000000 0.000000 0.000000 0.000000 0.000000 10.000000 
L_front_hand02_02 0.000000 0.000000 0.000000 0.000000 0.000000 0.000000 10.000000 
L_front_hand03_02 0.000000 0.000000 0.000000 0.000000 0.000000 0.000000 10.000000 
R_forearm 0.000000 0.000000 0.000000 0.000000 0.000000 0.000000 10.000000 
R_front_hand 0.000000 0.000000 0.000000 0.000000 0.000000 0.000000 10.000000 
R_weapon_bone 0.000000 0.000000 0.000000 0.000000 0.000000 0.000000 10.000000 
R_front_hand01_01 0.000000 0.000000 0.000000 0.000000 0.000000 0.000000 10.000000 
R_front_hand02_01 0.000000 0.000000 0.000000 0.000000 0.000000 0.000000 10.000000 
R_front_hand03_01 0.000000 0.000000 0.000000 0.000000 0.000000 0.000000 10.000000 
R_front_hand01_02 0.000000 0.000000 0.000000 0.000000 0.000000 0.000000 10.000000 
R_front_hand02_02 0.000000 0.000000 0.000000 0.000000 0.000000 0.000000 10.000000 
R_front_hand03_02 0.000000 0.000000 0.000000 0.000000 0.000000 0.000000 10.000000 
null_rope01_connect 0.000000 0.000000 0.000000 0.000000 0.000000 0.000000 10.000000 
Rope1_Seg01 0.000000 0.000000 0.000000 0.000000 0.000000 0.000000 10.000000 
Rope1_Seg02 0.000000 0.000000 0.000000 0.000000 0.000000 0.000000 10.000000 
Rope1_Seg03 0.000000 0.000000 0.000000 0.000000 0.000000 0.000000 10.000000 
Rope1_Seg04 0.000000 0.000000 0.000000 0.000000 0.000000 0.000000 10.000000 
Rope1_Seg05 0.000000 0.000000 0.000000 0.000000 0.000000 0.000000 10.000000 
Rope1_Seg06 0.000000 0.000000 0.000000 0.000000 0.000000 0.000000 10.000000 
Rope1_Seg07 0.000000 0.000000 0.000000 0.000000 0.000000 0.000000 10.000000 
Rope1_Seg09 0.000000 0.000000 0.000000 0.000000 0.000000 0.000000 10.000000 
L_mid_hand01 0.000000 0.000000 0.000000 0.000000 0.000000 0.000000 10.000000 
L_mid_hand02 0.000000 0.000000 0.000000 0.000000 0.000000 0.000000 10.000000 
L_mid_hand03 0.000000 0.000000 0.000000 0.000000 0.000000 0.000000 10.000000 
null_rope02_connect 0.000000 0.000000 0.000000 0.000000 0.000000 0.000000 10.000000 
Rope2_Seg01 0.000000 0.000000 0.000000 0.000000 0.000000 0.000000 10.000000 
Rope2_Seg02 0.000000 0.000000 0.000000 0.000000 0.000000 0.000000 10.000000 
Rope2_Seg03 0.000000 0.000000 0.000000 0.000000 0.000000 0.000000 10.000000 
Rope2_Seg04 0.000000 0.000000 0.000000 0.000000 0.000000 0.000000 10.000000 
Rope2_Seg05 0.000000 0.000000 0.000000 0.000000 0.000000 0.000000 10.000000 
Rope2_Seg06 0.000000 0.000000 0.000000 0.000000 0.000000 0.000000 10.000000 
Rope2_Seg07 0.000000 0.000000 0.000000 0.000000 0.000000 0.000000 10.000000 
Rope2_Seg09 0.000000 0.000000 0.000000 0.000000 0.000000 0.000000 10.000000 
R_mid_hand01 0.000000 0.000000 0.000000 0.000000 0.000000 0.000000 10.000000 
R_mid_hand02 0.000000 0.000000 0.000000 0.000000 0.000000 0.000000 10.000000 
R_mid_hand03 0.000000 0.000000 0.000000 0.000000 0.000000 0.000000 10.000000 
spine02 0.000000 0.000000 0.000000 0.000000 0.000000 0.000000 10.000000 
spine03 0.000000 0.000000 0.000000 0.000000 0.000000 0.000000 10.000000 
pelvis 0.000000 0.000000 0.000000 0.000000 0.000000 0.000000 10.000000 
null_rope03_connect 0.000000 0.000000 0.000000 0.000000 0.000000 0.000000 10.000000 
null_rope04_connect 0.000000 0.000000 0.000000 0.000000 0.000000 0.000000 10.000000 
Rope3_Seg01 0.000000 0.000000 0.000000 0.000000 0.000000 0.000000 10.000000 
Rope3_Seg02 0.000000 0.000000 0.000000 0.000000 0.000000 0.000000 10.000000 
Rope3_Seg03 0.000000 0.000000 0.000000 0.000000 0.000000 0.000000 10.000000 
Rope3_Seg04 0.000000 0.000000 0.000000 0.000000 0.000000 0.000000 10.000000 
Rope3_Seg05 0.000000 0.000000 0.000000 0.000000 0.000000 0.000000 10.000000 
Rope3_Seg06 0.000000 0.000000 0.000000 0.000000 0.000000 0.000000 10.000000 
Rope3_Seg07 0.000000 0.000000 0.000000 0.000000 0.000000 0.000000 10.000000 
Rope3_Seg08 0.000000 0.000000 0.000000 0.000000 0.000000 0.000000 10.000000 
Rope3_Seg09 0.000000 0.000000 0.000000 0.000000 0.000000 0.000000 10.000000 
R_rear_hand01 0.000000 0.000000 0.000000 0.000000 0.000000 0.000000 10.000000 
R_rear_hand02 0.000000 0.000000 0.000000 0.000000 0.000000 0.000000 10.000000 
R_rear_hand03 0.000000 0.000000 0.000000 0.000000 0.000000 0.000000 10.000000 
Rope4_Seg01 0.000000 0.000000 0.000000 0.000000 0.000000 0.000000 10.000000 
Rope4_Seg02 0.000000 0.000000 0.000000 0.000000 0.000000 0.000000 10.000000 
Rope4_Seg03 0.000000 0.000000 0.000000 0.000000 0.000000 0.000000 10.000000 
Rope4_Seg04 0.000000 0.000000 0.000000 0.000000 0.000000 0.000000 10.000000 
Rope4_Seg05 0.000000 0.000000 0.000000 0.000000 0.000000 0.000000 10.000000 
Rope4_Seg06 0.000000 0.000000 0.000000 0.000000 0.000000 0.000000 10.000000 
Rope4_Seg07 0.000000 0.000000 0.000000 0.000000 0.000000 0.000000 10.000000 
Rope4_Seg08 0.000000 0.000000 0.000000 0.000000 0.000000 0.000000 10.000000 
Rope4_Seg09 0.000000 0.000000 0.000000 0.000000 0.000000 0.000000 10.000000 
L_rear_hand01 0.000000 0.000000 0.000000 0.000000 0.000000 0.000000 10.000000 
L_rear_hand02 0.000000 0.000000 0.000000 0.000000 0.000000 0.000000 10.000000 
L_rear_hand03 0.000000 0.000000 0.000000 0.000000 0.000000 0.000000 10.000000 
#Beginning of Data. Separated by tabs
#Fr	Tx	Ty	Tz	Rx	Ry	Rz	SF
[MASTER]
13 0.000000 0.000000 0.000000 0.001660 0.001660 0.001660 0.000000
14 0.000000 0.000000 0.000000 0.001660 0.001660 0.001660 0.000000
[root]
13 -7.741411 276.298828 1803.648926 -84.320129 -29.166090 -106.450302 1824.705566
14 -5.033367 304.046814 1747.802612 -79.054207 -28.015308 -116.594551 1774.058594
[chest]
13 -84.512650 -34.090519 0.000000 -2.817031 -10.406185 175.971802 91.129311
14 -84.512650 -34.090519 0.000000 -2.817467 -10.450349 175.992676 91.129311
[L_mid_tent01]
13 27.299084 22.179354 -249.918655 156.684570 71.767876 -149.653687 252.381653
14 27.299082 22.179350 -249.918655 116.507637 30.984726 163.699799 252.381653
[R_mid_tent01]
13 23.228794 24.509907 226.238495 -15.390976 -60.341545 -73.737724 228.744751
14 23.228794 24.509907 226.238495 -42.728291 -59.082039 -43.016689 228.744751
[spine01]
13 -0.361383 -0.195265 0.000000 0.001937 0.001326 21.233631 0.410763
14 -0.361383 -0.195265 0.000000 0.001937 0.001326 21.192120 0.410763
[Bip01_Neck]
13 165.484543 71.581718 0.000119 175.896118 1.177290 24.871183 180.302734
14 165.484543 71.581718 0.000119 175.896118 1.177290 24.871183 180.302734
[L_humerus]
13 -13.983130 -135.272980 -120.471481 -84.435570 17.659260 5.525548 181.680161
14 -13.983130 -135.272980 -120.471481 -79.789627 14.438165 0.610142 181.680161
[R_humerus]
13 -13.983309 -135.273102 125.287651 137.810318 -36.434875 -8.037388 184.909012
14 -13.983309 -135.273102 125.287651 138.956497 -35.231945 -9.237791 184.909012
[weapon_bone]
13 235.964890 -300.705902 0.000000 0.000000 -89.951546 -128.212341 382.234833
14 235.964890 -300.705902 0.000000 0.000000 -89.951546 -128.212341 382.234833
[Bip01_Head]
13 247.882874 92.793732 2.275848 6.135849 3.995770 -58.412952 264.691833
14 251.671768 87.819954 1.697081 14.948997 6.119965 -60.848209 266.559357
[eye_left_bone]
13 32.097473 158.967300 -75.706024 -104.218590 -85.597984 4.718000 178.975571
14 32.154236 159.000824 -75.716988 -104.218590 -85.597984 4.718000 179.020172
[eye_right_bone]
13 43.193207 159.909134 52.957211 75.788536 -85.594551 4.713911 173.899536
14 43.196106 159.910599 52.956734 75.788536 -85.594551 4.713911 173.901474
[L_forearm]
13 322.776093 0.000000 -0.000119 0.001282 0.001966 -23.769234 322.776093
14 322.776093 0.000000 -0.000119 0.001396 0.001887 -16.999580 322.776093
[L_front_hand]
13 241.149185 -0.042021 -3.300071 -37.212517 -4.174965 2.248514 241.171753
14 241.149185 -0.042021 -3.300071 16.158846 -1.494708 -3.823013 241.171753
[L_weapon_bone]
13 156.183838 0.000000 0.000000 0.000352 0.002321 -72.757904 156.183838
14 156.183838 0.000000 0.000000 0.000288 0.002329 -75.898270 156.183838
[L_front_hand01_01]
13 86.095154 20.947098 -0.655860 -0.322008 -0.505197 70.390991 88.609184
14 86.095154 20.947098 -0.655860 -0.315717 -0.507387 69.794724 88.609184
[L_front_hand02_01]
13 86.935165 -11.437475 24.513514 147.230789 -57.447472 -52.980125 91.046425
14 86.935165 -11.437475 24.513514 146.453201 -57.121864 -52.056316 91.046425
[L_front_hand03_01]
13 86.637497 -14.123976 -20.424902 -147.242508 55.663502 -54.743435 90.126129
14 86.637497 -14.123976 -20.424902 -146.517288 55.339169 -53.864983 90.126129
[L_front_hand01_02]
13 71.020905 -0.000179 0.000030 0.001534 0.001777 -8.378851 71.020905
14 71.020905 -0.000179 0.000030 0.001534 0.001777 -8.378851 71.020905
[L_front_hand02_02]
13 71.020927 -0.000119 0.000060 0.001534 0.001777 -8.378851 71.020927
14 71.020927 -0.000119 0.000060 0.001534 0.001777 -8.378851 71.020927
[L_front_hand03_02]
13 71.020905 -0.000060 0.000060 0.001534 0.001777 -8.378851 71.020905
14 71.020905 -0.000060 0.000060 0.001534 0.001777 -8.378851 71.020905
[R_forearm]
13 322.776428 -0.000060 0.000030 0.144118 -0.159466 -42.887768 322.776428
14 322.776428 -0.000060 0.000030 0.136405 -0.163913 -40.696056 322.776428
[R_front_hand]
13 238.847015 -0.006795 2.210259 -2.635298 -10.645461 -26.312506 238.857239
14 238.847015 -0.006795 2.210259 -2.635298 -10.645461 -26.312506 238.857239
[R_weapon_bone]
13 155.664093 0.002503 -0.000030 0.003487 0.001180 -90.988930 155.664078
14 155.664093 0.002503 -0.000030 0.003487 0.001180 -90.988930 155.664078
[R_front_hand01_01]
13 87.624611 14.231146 22.918642 -154.633499 -59.950615 61.746044 91.683487
14 87.624611 14.231146 22.918642 -154.633499 -59.950634 61.746063 91.683487
[R_front_hand02_01]
13 89.356956 14.367283 -19.491137 154.602676 58.302864 63.744400 92.579636
14 89.356956 14.367283 -19.491137 154.602661 58.302849 63.744389 92.579636
[R_front_hand03_01]
13 87.286232 -22.307278 -0.143439 0.162155 -0.423168 -75.767921 90.091743
14 87.286232 -22.307278 -0.143439 0.162155 -0.423168 -75.767906 90.091743
[R_front_hand01_02]
13 71.020905 0.000060 0.000119 0.002010 0.001212 27.806376 71.020905
14 71.020905 0.000060 0.000119 0.002100 0.001048 36.949902 71.020905
[R_front_hand02_02]
13 71.020844 -0.000030 -0.000119 0.002010 0.001212 27.806376 71.020836
14 71.020844 -0.000030 -0.000119 0.002100 0.001048 36.949902 71.020836
[R_front_hand03_02]
13 71.020905 0.000000 0.000030 0.002010 0.001212 27.806376 71.020905
14 71.020905 0.000000 0.000030 0.002100 0.001048 36.949902 71.020905
[null_rope01_connect]
13 328.732483 0.000000 -0.000238 -119.127052 26.614758 161.127975 328.732483
14 328.732483 0.000000 -0.000238 -130.144928 34.519081 100.926491 328.732483
[Rope1_Seg01]
13 -0.000031 0.000024 0.000095 112.258453 -3.986542 164.677368 0.000103
14 -0.000030 0.000023 0.000091 86.992805 36.600681 100.813225 0.000098
[Rope1_Seg02]
13 139.999863 -0.000179 0.000000 -7.625607 -55.344406 3.322577 139.999863
14 139.999863 -0.000179 0.000000 -1.510015 -7.981113 4.808642 139.999863
[Rope1_Seg03]
13 139.999924 0.000060 -0.000060 -28.225279 -40.956306 -0.425647 139.999924
14 139.999924 0.000060 -0.000060 -3.041141 -10.223629 5.938661 139.999924
[Rope1_Seg04]
13 139.999924 -0.000060 -0.000119 -7.676635 -6.093578 -4.380574 139.999924
14 139.999924 -0.000060 -0.000119 -12.012534 -19.488485 12.306631 139.999924
[Rope1_Seg05]
13 139.999832 0.000119 -0.000060 1.899966 3.289114 -0.750381 139.999832
14 139.999832 0.000119 -0.000060 -6.898866 -5.079652 0.228711 139.999832
[Rope1_Seg06]
13 139.999954 0.000119 -0.000060 6.147111 9.050781 0.821533 139.999954
14 139.999954 0.000119 -0.000060 7.239820 15.901664 -7.404236 139.999954
[Rope1_Seg07]
13 139.999985 0.000060 0.000000 2.385075 5.202767 -0.721875 139.999985
14 139.999985 0.000060 0.000000 1.537949 7.310380 -4.912414 139.999985
[Rope1_Seg09]
13 121.602913 0.000119 -0.000089 -9.506061 -1.362017 0.849465 121.602913
14 121.602913 0.000119 -0.000089 27.035557 -1.361109 0.844488 121.602913
[L_mid_hand01]
13 103.859421 1.038730 8.195221 104.517319 -8.577770 -2.743145 104.187431
14 103.859421 1.038730 8.195221 104.741753 -12.981697 -3.912722 104.187431
[L_mid_hand02]
13 105.572853 -4.139662 -10.864139 -136.434753 10.300919 -10.054398 106.211075
14 105.572853 -4.139662 -10.864139 -137.134750 13.420637 -13.443505 106.211075
[L_mid_hand03]
13 104.641464 17.579376 -3.913581 -18.586889 2.627153 11.664845 106.179977
14 104.641464 17.579376 -3.913581 -18.336935 4.070742 15.990165 106.179977
[null_rope02_connect]
13 328.732849 0.000179 -0.000119 -141.705536 -24.807859 -24.333509 328.732849
14 328.732849 0.000179 -0.000119 -140.997604 -18.160461 -46.690498 328.732849
[Rope2_Seg01]
13 0.000095 0.000153 0.000029 -0.519861 -8.911318 -29.569416 0.000182
14 0.000095 0.000153 0.000031 31.782541 -18.979774 -47.488277 0.000183
[Rope2_Seg02]
13 139.999741 -0.000060 -0.000119 -42.319916 16.997555 25.496275 139.999756
14 139.999741 -0.000060 -0.000119 -56.678677 37.111942 26.527285 139.999756
[Rope2_Seg03]
13 140.000107 0.000030 0.000000 -21.992373 -5.797532 32.156712 140.000107
14 140.000107 0.000030 0.000000 -25.364565 -3.560829 35.270668 140.000107
[Rope2_Seg04]
13 139.999802 0.000000 -0.000060 -6.590843 -12.132359 20.832602 139.999802
14 139.999802 0.000000 -0.000060 -7.721001 -14.100167 24.176277 139.999802
[Rope2_Seg05]
13 139.999985 -0.000060 0.000119 -1.961301 -13.431139 19.528805 139.999985
14 139.999985 -0.000060 0.000119 -0.935204 -9.625685 13.322292 139.999985
[Rope2_Seg06]
13 139.999893 -0.000030 -0.000119 1.231991 -6.528784 9.344692 139.999893
14 139.999893 -0.000030 -0.000119 0.498363 -4.239085 5.855437 139.999893
[Rope2_Seg07]
13 139.999893 0.000060 -0.000060 1.325715 -3.380495 5.145037 139.999893
14 139.999893 0.000060 -0.000060 0.523229 -2.418855 3.424233 139.999893
[Rope2_Seg09]
13 121.338966 0.000089 -0.000060 33.793236 -1.359788 -0.847141 121.338966
14 121.338966 0.000089 -0.000060 33.793236 -1.359788 -0.847141 121.338966
[R_mid_hand01]
13 104.680779 11.144459 -10.335981 -16.212063 45.237247 70.462852 105.778534
14 104.680779 11.144459 -10.335981 -16.982639 45.008171 69.376053 105.778534
[R_mid_hand02]
13 104.070427 2.443552 8.231699 49.067368 -67.749771 39.286453 104.424065
14 104.070427 2.443552 8.231699 50.324406 -67.142441 37.928329 104.424065
[R_mid_hand03]
13 106.028137 -11.221827 -5.996406 -177.101105 15.551026 -76.585571 106.788818
14 106.028137 -11.221827 -5.996406 -176.876617 15.509374 -75.754578 106.788818
[spine02]
13 129.756927 0.001550 0.000119 0.432615 -4.037012 -13.996428 129.756927
14 129.756927 0.001550 0.000119 0.423034 -4.038101 -13.863967 129.756927
[spine03]
13 78.614044 0.081577 -4.899015 2.182515 3.674870 20.852985 78.766579
14 78.614044 0.081573 -4.899014 2.184130 3.673912 20.903343 78.766579
[pelvis]
13 169.435242 0.051022 0.000000 -0.062086 -0.179673 15.120064 169.435257
14 169.435242 0.051022 0.000000 -0.062063 -0.179681 15.105099 169.435257
[null_rope03_connect]
13 -1.257226 -2.466202 137.391083 -64.992569 -75.482880 141.846970 137.418976
14 -1.257226 -2.466202 137.391083 -61.969147 -66.550583 139.186493 137.418976
[null_rope04_connect]
13 -1.259640 -2.480268 -137.844437 -64.992569 -75.482880 141.846970 137.872513
14 -1.259640 -2.480268 -137.844437 -61.969147 -66.550583 139.186493 137.872513
[Rope3_Seg01]
13 0.000000 0.000000 0.000000 -133.158844 -10.533308 -60.955772 0.000000
14 0.000000 0.000000 0.000000 -134.994614 -20.764801 -67.025284 0.000000
[Rope3_Seg02]
13 139.999924 -0.000119 0.000060 5.537927 -15.265804 -10.649723 139.999924
14 139.999924 -0.000119 0.000060 1.801694 -9.662209 -12.215373 139.999924
[Rope3_Seg03]
13 139.999924 -0.000119 0.000119 15.656426 -20.228479 -13.739266 139.999924
14 139.999924 -0.000119 0.000119 3.386251 -12.455970 -17.060692 139.999924
[Rope3_Seg04]
13 139.999924 0.000119 0.000000 31.972130 -18.191614 -7.082497 139.999924
14 139.999924 0.000119 0.000000 8.808969 -13.245088 -16.444405 139.999924
[Rope3_Seg05]
13 139.999924 -0.000238 0.000060 54.868633 -25.433386 12.537971 139.999924
14 139.999924 -0.000238 0.000060 146.949097 -31.578239 -24.109074 139.999924
[Rope3_Seg06]
13 139.999893 -0.000119 -0.000060 13.341716 -1.898001 21.239538 139.999893
14 139.999893 -0.000119 -0.000060 9.154772 6.492642 22.163080 139.999893
[Rope3_Seg07]
13 139.999771 0.000060 -0.000119 3.386639 0.889591 8.551326 139.999771
14 139.999771 0.000060 -0.000119 2.003733 3.601679 8.276928 139.999771
[Rope3_Seg08]
13 139.999985 -0.000060 0.000000 1.647605 0.715625 4.390490 139.999985
14 139.999985 -0.000060 0.000000 1.032019 1.881178 3.971674 139.999985
[Rope3_Seg09]
13 90.185997 -0.000179 -0.000060 63.982658 -1.358584 -0.846719 90.185997
14 90.185997 -0.000179 -0.000060 61.422726 -1.359475 -0.845928 90.185997
[R_rear_hand01]
13 103.366196 -6.073594 -10.757982 -165.486221 20.162516 -42.491085 104.101845
14 103.366196 -6.073594 -10.757982 -169.737946 22.551674 -54.126629 104.101845
[R_rear_hand02]
13 100.509819 12.039542 -7.992327 -29.943001 25.833317 40.126579 101.543350
14 100.509819 12.039542 -7.992327 -24.598188 30.936150 51.337296 101.543350
[R_rear_hand03]
13 101.539970 5.215704 5.435467 82.198982 -43.108852 9.209245 101.819031
14 101.539970 5.215704 5.435467 80.282890 -54.075932 11.757588 101.819031
[Rope4_Seg01]
13 -0.000015 -0.000048 -0.000153 75.505356 -37.377464 -143.498367 0.000161
14 -0.000015 -0.000045 -0.000153 82.236916 -38.114639 -150.757523 0.000160
[Rope4_Seg02]
13 139.999985 0.000060 0.000119 0.335213 -1.619130 -0.502643 139.999985
14 139.999985 0.000060 0.000119 2.129230 -2.770120 0.608263 139.999985
[Rope4_Seg03]
13 139.999924 0.000000 -0.000238 0.631848 -2.852570 -0.869962 139.999924
14 139.999924 0.000000 -0.000238 4.413958 -4.889481 1.269604 139.999924
[Rope4_Seg04]
13 139.999985 0.000000 0.000119 2.147135 -7.546469 -2.237011 139.999985
14 139.999985 0.000000 0.000119 16.713577 -12.592823 4.503770 139.999985
[Rope4_Seg05]
13 139.999802 -0.000060 -0.000119 -110.145569 -73.671707 -104.867447 139.999802
14 139.999802 -0.000060 -0.000119 60.808739 -46.488377 52.195881 139.999802
[Rope4_Seg06]
13 139.999924 0.000000 0.000060 -4.899242 29.412956 -1.970651 139.999924
14 139.999924 0.000000 0.000060 11.025759 13.642917 30.836819 139.999924
[Rope4_Seg07]
13 139.999802 0.000000 0.000000 0.060634 5.008235 0.103322 139.999802
14 139.999802 0.000000 0.000000 0.676727 4.968337 7.997764 139.999802
[Rope4_Seg08]
13 139.999924 0.000000 0.000119 -1.430566 2.154866 0.123164 139.999924
14 139.999924 0.000000 0.000119 -1.509773 2.354167 3.518331 139.999924
[Rope4_Seg09]
13 90.185791 0.000060 0.000060 -158.740952 2.228700 0.852854 90.185791
14 90.185791 0.000060 0.000060 -161.232483 2.228890 0.851386 90.185791
[L_rear_hand01]
13 101.696655 -8.392275 -7.654577 -12.874829 -36.868488 107.832764 102.329041
14 101.696655 -8.392275 -7.654577 -13.195322 -36.769974 108.367897 102.329041
[L_rear_hand02]
13 102.726799 -1.568258 5.773216 71.484581 71.816628 158.486160 102.900848
14 102.726799 -1.568258 5.773216 71.888374 71.403000 158.912048 102.900848
[L_rear_hand03]
13 104.552910 9.721220 -10.420293 -177.714203 -24.565960 -106.089035 105.519653
14 104.552910 9.721220 -10.420293 -177.514771 -24.546808 -106.563797 105.519653
